{"title":"Stand Up Guys (2012) 480p BRRip x264 370MB Dual Audio [Eng- Hind","uid":9464502,"size":390101117,"categoryP":"video","categoryS":"movies","magnet":"?xt=urn:btih:495c4bdc9276387e4d6696d2d252eeeef5fabf0d&amp;dn=Stand+Up+Guys+%282012%29+480p+BRRip+x264+370MB+Dual+Audio+%5BEng-+Hind&amp;tr=udp%3A%2F%2Ftracker.openbittorrent.com%3A80&amp;tr=udp%3A%2F%2Fopen.demonii.com%3A1337&amp;tr=udp%3A%2F%2Ftracker.coppersurfer.tk%3A6969&amp;tr=udp%3A%2F%2Fexodus.desync.com%3A6969","seeders":1,"leechers":1,"uploader":"Chaudhary1","files":2,"time":1389428717,"description":" &lt;a href=&quot;http://img843.imageshack.us/img843/3355/f8rv.png&quot; rel=&quot;nofollow&quot; target=&quot;_NEW&quot;&gt;http://img843.imageshack.us/img843/3355/f8rv.png&lt;/a&gt;\n\n\nStand Up Guys (2012) 480p BRRip x264 370MB Dual Audio[Eng- Hindi] Chaudharyâ„¢ ExD XMR \n &lt;a href=&quot;\nhttp://i.imgur.com/PJJ0PTR.jpg&quot; rel=&quot;nofollow&quot; target=&quot;_NEW&quot;&gt;\nhttp://i.imgur.com/PJJ0PTR.jpg&lt;/a&gt;\n\n\nComplete name                            : Stand Up Guys (2012) 480p BRRip x264 370MB Dual Audio [Eng- Hindi] Chaudharyâ„¢ ExD XMR Exclusive.mp4\nFormat                                   : MPEG-4\nFormat profile                           : Base Media\nCodec ID                                 : isom\nFile size                                : 372 MiB\nDuration                                 : 1h 34mn\nOverall bit rate                         : 547 Kbps\nEncoded date                             : UTC 2014-01-11 05:10:51\nTagged date                              : UTC 2014-01-11 05:10:51\n\nVideo\nID                                       : 1\nFormat                                   : AVC\nFormat/Info                              : Advanced Video Codec\nFormat profile                           : &lt;a class=&quot;__cf_email__&quot; href=&quot;/cdn-cgi/l/email-protection&quot; data-cfemail=&quot;357d5c525d7579061b04&quot;&gt;[email&amp;#160;protected]&lt;/a&gt;&lt;script cf-hash='f9e31' type=&quot;text/javascript&quot;&gt;\n/* &lt;![CDATA[ */!function(){try{var t=&quot;currentScript&quot;in document?document.currentScript:function(){for(var t=document.getElementsByTagName(&quot;script&quot;),e=t.length;e--;)if(t[e].getAttribute(&quot;cf-hash&quot;))return t[e]}();if(t&amp;&amp;t.previousSibling){var e,r,n,i,c=t.previousSibling,a=c.getAttribute(&quot;data-cfemail&quot;);if(a){for(e=&quot;&quot;,r=parseInt(a.substr(0,2),16),n=2;a.length-n;n+=2)i=parseInt(a.substr(n,2),16)^r,e+=String.fromCharCode(i);e=document.createTextNode(e),c.parentNode.replaceChild(e,c)}}}catch(u){}}();/* ]]&gt; */&lt;/script&gt;\nFormat settings, CABAC                   : Yes\nFormat settings, ReFrames                : 16 frames\nCodec ID                                 : avc1\nCodec ID/Info                            : Advanced Video Coding\nDuration                                 : 1h 34mn\nBit rate                                 : 449 Kbps\nMaximum bit rate                         : 2 666 Kbps\nWidth                                    : 720 pixels\nHeight                                   : 304 pixels\nDisplay aspect ratio                     : 2.40:1\nOriginal display aspect ratio            : 2.40:1\nFrame rate mode                          : Constant\nFrame rate                               : 23.976 fps\nColor space                              : YUV\nChroma subsampling                       : 4:2:0\nBit depth                                : 8 bits\nScan type                                : Progressive\nBits/(Pixel*Frame)                       : 0.086\nStream size                              : 305 MiB (82%)\nTitle                                    : ChaudharyÂ™\nWriting library                          : x264 core 138 r2358 9e941d1\nColor primaries                          : Generic film\nTransfer characteristics                 : BT.709\nMatrix coefficients                      : BT.709\n\nAudio #1\nID                                       : 2\nFormat                                   : MPEG Audio\nFormat version                           : Version 2\nFormat profile                           : Layer 3\nMode                                     : Joint stereo\nMode extension                           : MS Stereo\nCodec ID                                 : 69\nDuration                                 : 1h 34mn\nBit rate mode                            : Constant\nChannel count                            : 2 channels\nSampling rate                            : 16.0 KHz\nCompression mode                         : Lossy\nStream size                              : 21.7 MiB (6%)\nTitle                                    : ChaudharyÂ™\nWriting library                          : LAME3.99.5\nLanguage                                 : English\nEncoded date                             : UTC 2014-01-11 05:10:53\nTagged date                              : UTC 2014-01-11 05:10:55\n\nAudio #2\nID                                       : 3\nFormat                                   : AC-3\nFormat/Info                              : Audio Coding 3\nMode extension                           : CM (complete main)\nFormat settings, Endianness              : Big\nCodec ID                                 : ac-3\nDuration                                 : 1h 34mn\nBit rate mode                            : Constant\nBit rate                                 : 64.0 Kbps\nChannel count                            : 2 channels\nChannel positions                        : Front: L R\nSampling rate                            : 48.0 KHz\nBit depth                                : 16 bits\nCompression mode                         : Lossy\nStream size                              : 43.5 MiB (12%)\nTitle                                    : ChaudharyÂ™\nLanguage                                 : Hindi\nEncoded date                             : UTC 2014-01-11 05:10:54\nTagged date                              : UTC 2014-01-11 05:10:55\n\n &lt;a href=&quot;\nhttp://i.imgur.com/flYUhHi.png&quot; rel=&quot;nofollow&quot; target=&quot;_NEW&quot;&gt;\nhttp://i.imgur.com/flYUhHi.png&lt;/a&gt; &lt;a href=&quot;\nhttp://i.imgur.com/ja8YO50.png&quot; rel=&quot;nofollow&quot; target=&quot;_NEW&quot;&gt;\nhttp://i.imgur.com/ja8YO50.png&lt;/a&gt; &lt;a href=&quot;\nhttp://i.imgur.com/FUl1Q1D.png&quot; rel=&quot;nofollow&quot; target=&quot;_NEW&quot;&gt;\nhttp://i.imgur.com/FUl1Q1D.png&lt;/a&gt; &lt;a href=&quot;\nhttp://i.imgur.com/Fcj34w5.png&quot; rel=&quot;nofollow&quot; target=&quot;_NEW&quot;&gt;\nhttp://i.imgur.com/Fcj34w5.png&lt;/a&gt; &lt;a href=&quot;\nhttp://i.imgur.com/LVX3uVv.png&quot; rel=&quot;nofollow&quot; target=&quot;_NEW&quot;&gt;\nhttp://i.imgur.com/LVX3uVv.png&lt;/a&gt; &lt;a href=&quot;\nhttp://i.imgur.com/TJhEQmD.png&quot; rel=&quot;nofollow&quot; target=&quot;_NEW&quot;&gt;\nhttp://i.imgur.com/TJhEQmD.png&lt;/a&gt; &lt;a href=&quot;\nhttp://i.imgur.com/7rpCmv0.png&quot; rel=&quot;nofollow&quot; target=&quot;_NEW&quot;&gt;\nhttp://i.imgur.com/7rpCmv0.png&lt;/a&gt; &lt;a href=&quot;\nhttp://i.imgur.com/TdAVepH.png&quot; rel=&quot;nofollow&quot; target=&quot;_NEW&quot;&gt;\nhttp://i.imgur.com/TdAVepH.png&lt;/a&gt;\n\nAudio Source Ranz Club @ Thanks Mate\n\nSample In MKV Format But movie MP4 Format \n\n\n","torrent":{"xt":"urn:btih:495c4bdc9276387e4d6696d2d252eeeef5fabf0d","amp;dn":"Stand+Up+Guys+%282012%29+480p+BRRip+x264+370MB+Dual+Audio+%5BEng-+Hind","amp;tr":["udp%3A%2F%2Ftracker.openbittorrent.com%3A80","udp%3A%2F%2Fopen.demonii.com%3A1337","udp%3A%2F%2Ftracker.coppersurfer.tk%3A6969","udp%3A%2F%2Fexodus.desync.com%3A6969"],"infoHash":"495c4bdc9276387e4d6696d2d252eeeef5fabf0d","infoHashBuffer":{"type":"Buffer","data":[73,92,75,220,146,118,56,126,77,102,150,210,210,82,238,238,245,250,191,13]},"announce":[],"urlList":[]}}